<mxfile host="app.diagrams.net" modified="2021-07-25T13:41:55.599Z" agent="5.0 (Windows NT 10.0; Win64; x64) AppleWebKit/537.36 (KHTML, like Gecko) Chrome/90.0.4430.93 Safari/537.36" etag="gte3pZzOcpAo9OdHJSwd" version="14.8.2" type="github">
  <diagram id="mZSPQv_EDBqMEPavD_vN" name="Page-1">
    <mxGraphModel dx="1107" dy="622" grid="1" gridSize="10" guides="1" tooltips="1" connect="1" arrows="1" fold="1" page="1" pageScale="1" pageWidth="827" pageHeight="1169" math="0" shadow="0">
      <root>
        <mxCell id="0" />
        <mxCell id="1" parent="0" />
        <mxCell id="GK8F7HFFTt3U1kgFTSHo-1" value="" style="rounded=1;whiteSpace=wrap;html=1;opacity=30;strokeColor=#7EA6E0;fillColor=#D4E1F5;" vertex="1" parent="1">
          <mxGeometry x="350" y="110" width="200" height="320" as="geometry" />
        </mxCell>
        <mxCell id="GK8F7HFFTt3U1kgFTSHo-9" value="" style="rounded=1;whiteSpace=wrap;html=1;strokeColor=#7EA6E0;fillColor=#D4E1F5;" vertex="1" parent="1">
          <mxGeometry x="351" y="240" width="199" height="295" as="geometry" />
        </mxCell>
        <mxCell id="GK8F7HFFTt3U1kgFTSHo-14" value="" style="shape=image;imageAspect=0;aspect=fixed;verticalLabelPosition=bottom;verticalAlign=top;image=data:image/png,iVBORw0KGgoAAAANSUhEUgAAAMcAAAAPCAYAAABQvtsfAAAAAXNSR0IArs4c6QAAAARnQU1BAACxjwv8YQUAAAAJcEhZcwAADsMAAA7DAcdvqGQAAAXvSURBVGhD7ZnLcutEEIZbvl9iO06ce8KKF4AtxYqn4FWABVSxhFc6LFnCO5A4ie+X+C5b9N8aJY7OaDRyFecUVfpc7UgTzy+5p2e6R3Yetr97lJKS8hEZ9TclJSWE89fwB23mcByH8oUCZTKOatHjeR6t12vydvYJiKWVtnlusjRtWHu326kWO/KFPGWzWXUWzWa9oe12q87syOVzlMvl1Fk0m41LW9dVZ3ZAF/pxuKzrsn4S4I8c+8U8miT+2Gw27HzVYEEmm6F8viDjagLjiPHEuNqC+EOsIB5N7Dj+fO0kcWiOceenP77WqhX4y17f3FGxUFQtejabNT20/6HVaqVa4slmc3RzfUvlckW16NluXWo/3tN8Plct8eALX13eUK1WVy164MSn5weaTCaqxY7zswtqNk/VWTTd3hMNBgN1ZscJ656dnfORORCGwz7rdxIFQr3WoIuLq9gFaTods18eEy1IlUqVrq9uZFxNzOcv9PjUlsltS6lUFm1MPhPL1YLa7Xt/YlsSF+MZOFhr+C//9ZeQaHt9hfubTH1ep7dv8h7uG2t+n32dKAs+m8y4q0YrbPicvn+Mce+wVtjkpesbYzqtsPkvPtL0jzb/8/s6OpP3d/3szOe9ls7kXdM/0vjzfPDaP2zpniMlJQLnxw9fYZoI1eqRlA1A6rE816iaWm82e6Fevyt1Hmbgxt3wnsOchoulEl1zuSOwJNJkRqO9WC6o03lWaZ21OU3Gpfgc3yfKtIzDc50lcznec2jKB+yNnjtPr2nd5fuO23M4rIO0jhQMsC/Q7WegA+2gvMQ1UBbGcXl5TWUuHYDsCzT7mR37uNt9fi0vcS0X2rLqRdPiEq1Wrcmx7AvYL2Ewfv1Bj15epiK32/GeA/6J0W42T+i40ZRj+EhiRc7egPZoNKTxZCzHGEf4HMcm6vUGnZ605NjBnoPvOxyHUJiy7mA4ED3P4/0Mx0qcdpIYfxdBqEeLxaJYwbAJwuAgCFarJQfcKnZiAARuoI0aTzcxABwITWjjGja1L+4TmoG2bmIAOO5Nexk7MQDu8lWbLWqjjyHB5HvTtqurMTiBtmmjj4EPtBFg/GXUf6JBUAXauokRAO2lGk+p2S20c7y/CLQLmokRgEkc3Df2p3HBC+DjN+3oOHQRh2o85aGQhXaSGE/LqpSUCJxf//zGQ6rxV98CHR35aXgfzEik3cVyKedYfWfzWUzGYL1SkWpHddHO86qIdKljNpuJHsCqiGvFZQw8gmvUGpLSsdI0WFu3CiwWC5qyHsBqDu24jIEVvF4/Fl1oQluXMbBqTaRkgI92ch0XK68BrFyNxrGUfqBeq0v2CAM/jMdj2sIP8D+nefjdBO4VPi6opy9HPK5YIcPg+48nI74G/OCJ76UcNKy80EZs4OkRqJQrVC77x/ugLMMTwLX4wRP/o1Q2abM4VStVqlTw9NLha5TkPMwOPmbtFWcJaCPbLRCHMdooWw+Jcee3v7/zzlsX0jEKBGqH6+nReKRaLGA9DPxlzONDfK1er0P9fs9vsKRSrfI+4y6yhAoYjgb0/PykzuwoFkt0e3tnLEXA9GVC7ce2VVkZgIl3e/OFBICJxWJOD+17DmC78gzAz9e898KkMIGBh3aSx+9YhC7OL3mfcaxa9KAsaz8+yP3bgtg7bZ3RabOFsIkEkxqPghHEtkD7uNmkQ2I8LatSUiJwfvnwrYcnD6ZZhZVxMOwnmrEszamsKk8dsOpEwulsNB5yCZEgKzFI72dnF8asBPCj1mDQV2d2oCzBE42sYYMM5pzSe70ufwX7zIEfyqBd0JQ7+2CT2e12pBS0Bb5otc5jf1x1eWPcYW1skG1xnAydnJxySYKsFB0rWy4Hu+wT3L8tiL1GoynlK5+o1o/Zcebo97s0T5CVoIfS/pAYd77/+UvP1ElATS0FUHJitRmbpww6/rfa8mbW96WT639u7f80Vj6xtiy7GGSjHXhDQKsXskPRaYXtUHRaYTsU9NTp7Zv/qeR8bm28DkWrt2+fVJvoX/awdJIaO47QAAAAAElFTkSuQmCCq8ETfcgoE+FL8bvhgC/Nd8jGGJSGjo9PrdkYwA/q+/1euJQOlLTwtGCWsxsb4/GIs72ulCrSgh+mQ7tgKJWtgxvy3W5HSixpQV8cHZ04f/Q+85+pw9p4OCQtnpehg4ND2tvDFUeyV+Yzn7rcJ9j/tMB7jUZTykLItJNY8FVBr9el8Q5XHNBDyUw9vol6fBv1uAn1uInX8Lj3wy/vlrYBE1ALl8LC7ji1Gev9DAtfrLZM7PqB9O76/7f2J/XKl6rNqMe3UY8b+FK1GfX4NjYfypdvOK8oiqIoyieH6D9JgdaskvvvswAAAABJRU5ErkJggg==;" vertex="1" parent="1">
          <mxGeometry x="351" y="335" width="199" height="15" as="geometry" />
        </mxCell>
        <mxCell id="GK8F7HFFTt3U1kgFTSHo-15" value="" style="shape=image;imageAspect=0;aspect=fixed;verticalLabelPosition=bottom;verticalAlign=top;image=data:image/png,iVBORw0KGgoAAAANSUhEUgAAAMcAAAAPCAYAAABQvtsfAAAAAXNSR0IArs4c6QAAAARnQU1BAACxjwv8YQUAAAAJcEhZcwAADsMAAA7DAcdvqGQAAAXvSURBVGhD7ZnLcutEEIZbvl9iO06ce8KKF4AtxYqn4FWABVSxhFc6LFnCO5A4ie+X+C5b9N8aJY7OaDRyFecUVfpc7UgTzy+5p2e6R3Yetr97lJKS8hEZ9TclJSWE89fwB23mcByH8oUCZTKOatHjeR6t12vydvYJiKWVtnlusjRtWHu326kWO/KFPGWzWXUWzWa9oe12q87syOVzlMvl1Fk0m41LW9dVZ3ZAF/pxuKzrsn4S4I8c+8U8miT+2Gw27HzVYEEmm6F8viDjagLjiPHEuNqC+EOsIB5N7Dj+fO0kcWiOceenP77WqhX4y17f3FGxUFQtejabNT20/6HVaqVa4slmc3RzfUvlckW16NluXWo/3tN8Plct8eALX13eUK1WVy164MSn5weaTCaqxY7zswtqNk/VWTTd3hMNBgN1ZscJ656dnfORORCGwz7rdxIFQr3WoIuLq9gFaTods18eEy1IlUqVrq9uZFxNzOcv9PjUlsltS6lUFm1MPhPL1YLa7Xt/YlsSF+MZOFhr+C//9ZeQaHt9hfubTH1ep7dv8h7uG2t+n32dKAs+m8y4q0YrbPicvn+Mce+wVtjkpesbYzqtsPkvPtL0jzb/8/s6OpP3d/3szOe9ls7kXdM/0vjzfPDaP2zpniMlJQLnxw9fYZoI1eqRlA1A6rE816iaWm82e6Fevyt1Hmbgxt3wnsOchoulEl1zuSOwJNJkRqO9WC6o03lWaZ21OU3Gpfgc3yfKtIzDc50lcznec2jKB+yNnjtPr2nd5fuO23M4rIO0jhQMsC/Q7WegA+2gvMQ1UBbGcXl5TWUuHYDsCzT7mR37uNt9fi0vcS0X2rLqRdPiEq1Wrcmx7AvYL2Ewfv1Bj15epiK32/GeA/6J0W42T+i40ZRj+EhiRc7egPZoNKTxZCzHGEf4HMcm6vUGnZ605NjBnoPvOxyHUJiy7mA4ED3P4/0Mx0qcdpIYfxdBqEeLxaJYwbAJwuAgCFarJQfcKnZiAARuoI0aTzcxABwITWjjGja1L+4TmoG2bmIAOO5Nexk7MQDu8lWbLWqjjyHB5HvTtqurMTiBtmmjj4EPtBFg/GXUf6JBUAXauokRAO2lGk+p2S20c7y/CLQLmokRgEkc3Df2p3HBC+DjN+3oOHQRh2o85aGQhXaSGE/LqpSUCJxf//zGQ6rxV98CHR35aXgfzEik3cVyKedYfWfzWUzGYL1SkWpHddHO86qIdKljNpuJHsCqiGvFZQw8gmvUGpLSsdI0WFu3CiwWC5qyHsBqDu24jIEVvF4/Fl1oQluXMbBqTaRkgI92ch0XK68BrFyNxrGUfqBeq0v2CAM/jMdj2sIP8D+nefjdBO4VPi6opy9HPK5YIcPg+48nI74G/OCJ76UcNKy80EZs4OkRqJQrVC77x/ugLMMTwLX4wRP/o1Q2abM4VStVqlTw9NLha5TkPMwOPmbtFWcJaCPbLRCHMdooWw+Jcee3v7/zzlsX0jEKBGqH6+nReKRaLGA9DPxlzONDfK1er0P9fs9vsKRSrfI+4y6yhAoYjgb0/PykzuwoFkt0e3tnLEXA9GVC7ce2VVkZgIl3e/OFBICJxWJOD+17DmC78gzAz9e898KkMIGBh3aSx+9YhC7OL3mfcaxa9KAsaz8+yP3bgtg7bZ3RabOFsIkEkxqPghHEtkD7uNmkQ2I8LatSUiJwfvnwrYcnD6ZZhZVxMOwnmrEszamsKk8dsOpEwulsNB5yCZEgKzFI72dnF8asBPCj1mDQV2d2oCzBE42sYYMM5pzSe70ufwX7zIEfyqBd0JQ7+2CT2e12pBS0Bb5otc5jf1x1eWPcYW1skG1xnAydnJxySYKsFB0rWy4Hu+wT3L8tiL1GoynlK5+o1o/Zcebo97s0T5CVoIfS/pAYd77/+UvP1ElATS0FUHJitRmbpww6/rfa8mbW96WT639u7f80Vj6xtiy7GGSjHXhDQKsXskPRaYXtUHRaYTsU9NTp7Zv/qeR8bm28DkWrt2+fVJvoX/awdJIaO47QAAAAAElFTkSuQmCCq8ETfcgoE+FL8bvhgC/Nd8jGGJSGjo9PrdkYwA/q+/1euJQOlLTwtGCWsxsb4/GIs72ulCrSgh+mQ7tgKJWtgxvy3W5HSixpQV8cHZ04f/Q+85+pw9p4OCQtnpehg4ND2tvDFUeyV+Yzn7rcJ9j/tMB7jUZTykLItJNY8FVBr9el8Q5XHNBDyUw9vol6fBv1uAn1uInX8Lj3wy/vlrYBE1ALl8LC7ji1Gev9DAtfrLZM7PqB9O76/7f2J/XKl6rNqMe3UY8b+FK1GfX4NjYfypdvOK8oiqIoyieH6D9JgdaskvvvswAAAABJRU5ErkJggg==;opacity=30;" vertex="1" parent="1">
          <mxGeometry x="530" y="335" width="199" height="15" as="geometry" />
        </mxCell>
        <mxCell id="GK8F7HFFTt3U1kgFTSHo-17" value="" style="shape=image;imageAspect=0;aspect=fixed;verticalLabelPosition=bottom;verticalAlign=top;image=data:image/png,iVBORw0KGgoAAAANSUhEUgAAAMcAAAAPCAYAAABQvtsfAAAAAXNSR0IArs4c6QAAAARnQU1BAACxjwv8YQUAAAAJcEhZcwAADsMAAA7DAcdvqGQAAAXvSURBVGhD7ZnLcutEEIZbvl9iO06ce8KKF4AtxYqn4FWABVSxhFc6LFnCO5A4ie+X+C5b9N8aJY7OaDRyFecUVfpc7UgTzy+5p2e6R3Yetr97lJKS8hEZ9TclJSWE89fwB23mcByH8oUCZTKOatHjeR6t12vydvYJiKWVtnlusjRtWHu326kWO/KFPGWzWXUWzWa9oe12q87syOVzlMvl1Fk0m41LW9dVZ3ZAF/pxuKzrsn4S4I8c+8U8miT+2Gw27HzVYEEmm6F8viDjagLjiPHEuNqC+EOsIB5N7Dj+fO0kcWiOceenP77WqhX4y17f3FGxUFQtejabNT20/6HVaqVa4slmc3RzfUvlckW16NluXWo/3tN8Plct8eALX13eUK1WVy164MSn5weaTCaqxY7zswtqNk/VWTTd3hMNBgN1ZscJ656dnfORORCGwz7rdxIFQr3WoIuLq9gFaTods18eEy1IlUqVrq9uZFxNzOcv9PjUlsltS6lUFm1MPhPL1YLa7Xt/YlsSF+MZOFhr+C//9ZeQaHt9hfubTH1ep7dv8h7uG2t+n32dKAs+m8y4q0YrbPicvn+Mce+wVtjkpesbYzqtsPkvPtL0jzb/8/s6OpP3d/3szOe9ls7kXdM/0vjzfPDaP2zpniMlJQLnxw9fYZoI1eqRlA1A6rE816iaWm82e6Fevyt1Hmbgxt3wnsOchoulEl1zuSOwJNJkRqO9WC6o03lWaZ21OU3Gpfgc3yfKtIzDc50lcznec2jKB+yNnjtPr2nd5fuO23M4rIO0jhQMsC/Q7WegA+2gvMQ1UBbGcXl5TWUuHYDsCzT7mR37uNt9fi0vcS0X2rLqRdPiEq1Wrcmx7AvYL2Ewfv1Bj15epiK32/GeA/6J0W42T+i40ZRj+EhiRc7egPZoNKTxZCzHGEf4HMcm6vUGnZ605NjBnoPvOxyHUJiy7mA4ED3P4/0Mx0qcdpIYfxdBqEeLxaJYwbAJwuAgCFarJQfcKnZiAARuoI0aTzcxABwITWjjGja1L+4TmoG2bmIAOO5Nexk7MQDu8lWbLWqjjyHB5HvTtqurMTiBtmmjj4EPtBFg/GXUf6JBUAXauokRAO2lGk+p2S20c7y/CLQLmokRgEkc3Df2p3HBC+DjN+3oOHQRh2o85aGQhXaSGE/LqpSUCJxf//zGQ6rxV98CHR35aXgfzEik3cVyKedYfWfzWUzGYL1SkWpHddHO86qIdKljNpuJHsCqiGvFZQw8gmvUGpLSsdI0WFu3CiwWC5qyHsBqDu24jIEVvF4/Fl1oQluXMbBqTaRkgI92ch0XK68BrFyNxrGUfqBeq0v2CAM/jMdj2sIP8D+nefjdBO4VPi6opy9HPK5YIcPg+48nI74G/OCJ76UcNKy80EZs4OkRqJQrVC77x/ugLMMTwLX4wRP/o1Q2abM4VStVqlTw9NLha5TkPMwOPmbtFWcJaCPbLRCHMdooWw+Jcee3v7/zzlsX0jEKBGqH6+nReKRaLGA9DPxlzONDfK1er0P9fs9vsKRSrfI+4y6yhAoYjgb0/PykzuwoFkt0e3tnLEXA9GVC7ce2VVkZgIl3e/OFBICJxWJOD+17DmC78gzAz9e898KkMIGBh3aSx+9YhC7OL3mfcaxa9KAsaz8+yP3bgtg7bZ3RabOFsIkEkxqPghHEtkD7uNmkQ2I8LatSUiJwfvnwrYcnD6ZZhZVxMOwnmrEszamsKk8dsOpEwulsNB5yCZEgKzFI72dnF8asBPCj1mDQV2d2oCzBE42sYYMM5pzSe70ufwX7zIEfyqBd0JQ7+2CT2e12pBS0Bb5otc5jf1x1eWPcYW1skG1xnAydnJxySYKsFB0rWy4Hu+wT3L8tiL1GoynlK5+o1o/Zcebo97s0T5CVoIfS/pAYd77/+UvP1ElATS0FUHJitRmbpww6/rfa8mbW96WT639u7f80Vj6xtiy7GGSjHXhDQKsXskPRaYXtUHRaYTsU9NTp7Zv/qeR8bm28DkWrt2+fVJvoX/awdJIaO47QAAAAAElFTkSuQmCCq8ETfcgoE+FL8bvhgC/Nd8jGGJSGjo9PrdkYwA/q+/1euJQOlLTwtGCWsxsb4/GIs72ulCrSgh+mQ7tgKJWtgxvy3W5HSixpQV8cHZ04f/Q+85+pw9p4OCQtnpehg4ND2tvDFUeyV+Yzn7rcJ9j/tMB7jUZTykLItJNY8FVBr9el8Q5XHNBDyUw9vol6fBv1uAn1uInX8Lj3wy/vlrYBE1ALl8LC7ji1Gev9DAtfrLZM7PqB9O76/7f2J/XKl6rNqMe3UY8b+FK1GfX4NjYfypdvOK8oiqIoyieH6D9JgdaskvvvswAAAABJRU5ErkJggg==;" vertex="1" parent="1">
          <mxGeometry x="350" y="480" width="199" height="15" as="geometry" />
        </mxCell>
        <mxCell id="GK8F7HFFTt3U1kgFTSHo-18" value="" style="shape=image;imageAspect=0;aspect=fixed;verticalLabelPosition=bottom;verticalAlign=top;image=data:image/png,iVBORw0KGgoAAAANSUhEUgAAAMcAAAAPCAYAAABQvtsfAAAAAXNSR0IArs4c6QAAAARnQU1BAACxjwv8YQUAAAAJcEhZcwAADsMAAA7DAcdvqGQAAAXvSURBVGhD7ZnLcutEEIZbvl9iO06ce8KKF4AtxYqn4FWABVSxhFc6LFnCO5A4ie+X+C5b9N8aJY7OaDRyFecUVfpc7UgTzy+5p2e6R3Yetr97lJKS8hEZ9TclJSWE89fwB23mcByH8oUCZTKOatHjeR6t12vydvYJiKWVtnlusjRtWHu326kWO/KFPGWzWXUWzWa9oe12q87syOVzlMvl1Fk0m41LW9dVZ3ZAF/pxuKzrsn4S4I8c+8U8miT+2Gw27HzVYEEmm6F8viDjagLjiPHEuNqC+EOsIB5N7Dj+fO0kcWiOceenP77WqhX4y17f3FGxUFQtejabNT20/6HVaqVa4slmc3RzfUvlckW16NluXWo/3tN8Plct8eALX13eUK1WVy164MSn5weaTCaqxY7zswtqNk/VWTTd3hMNBgN1ZscJ656dnfORORCGwz7rdxIFQr3WoIuLq9gFaTods18eEy1IlUqVrq9uZFxNzOcv9PjUlsltS6lUFm1MPhPL1YLa7Xt/YlsSF+MZOFhr+C//9ZeQaHt9hfubTH1ep7dv8h7uG2t+n32dKAs+m8y4q0YrbPicvn+Mce+wVtjkpesbYzqtsPkvPtL0jzb/8/s6OpP3d/3szOe9ls7kXdM/0vjzfPDaP2zpniMlJQLnxw9fYZoI1eqRlA1A6rE816iaWm82e6Fevyt1Hmbgxt3wnsOchoulEl1zuSOwJNJkRqO9WC6o03lWaZ21OU3Gpfgc3yfKtIzDc50lcznec2jKB+yNnjtPr2nd5fuO23M4rIO0jhQMsC/Q7WegA+2gvMQ1UBbGcXl5TWUuHYDsCzT7mR37uNt9fi0vcS0X2rLqRdPiEq1Wrcmx7AvYL2Ewfv1Bj15epiK32/GeA/6J0W42T+i40ZRj+EhiRc7egPZoNKTxZCzHGEf4HMcm6vUGnZ605NjBnoPvOxyHUJiy7mA4ED3P4/0Mx0qcdpIYfxdBqEeLxaJYwbAJwuAgCFarJQfcKnZiAARuoI0aTzcxABwITWjjGja1L+4TmoG2bmIAOO5Nexk7MQDu8lWbLWqjjyHB5HvTtqurMTiBtmmjj4EPtBFg/GXUf6JBUAXauokRAO2lGk+p2S20c7y/CLQLmokRgEkc3Df2p3HBC+DjN+3oOHQRh2o85aGQhXaSGE/LqpSUCJxf//zGQ6rxV98CHR35aXgfzEik3cVyKedYfWfzWUzGYL1SkWpHddHO86qIdKljNpuJHsCqiGvFZQw8gmvUGpLSsdI0WFu3CiwWC5qyHsBqDu24jIEVvF4/Fl1oQluXMbBqTaRkgI92ch0XK68BrFyNxrGUfqBeq0v2CAM/jMdj2sIP8D+nefjdBO4VPi6opy9HPK5YIcPg+48nI74G/OCJ76UcNKy80EZs4OkRqJQrVC77x/ugLMMTwLX4wRP/o1Q2abM4VStVqlTw9NLha5TkPMwOPmbtFWcJaCPbLRCHMdooWw+Jcee3v7/zzlsX0jEKBGqH6+nReKRaLGA9DPxlzONDfK1er0P9fs9vsKRSrfI+4y6yhAoYjgb0/PykzuwoFkt0e3tnLEXA9GVC7ce2VVkZgIl3e/OFBICJxWJOD+17DmC78gzAz9e898KkMIGBh3aSx+9YhC7OL3mfcaxa9KAsaz8+yP3bgtg7bZ3RabOFsIkEkxqPghHEtkD7uNmkQ2I8LatSUiJwfvnwrYcnD6ZZhZVxMOwnmrEszamsKk8dsOpEwulsNB5yCZEgKzFI72dnF8asBPCj1mDQV2d2oCzBE42sYYMM5pzSe70ufwX7zIEfyqBd0JQ7+2CT2e12pBS0Bb5otc5jf1x1eWPcYW1skG1xnAydnJxySYKsFB0rWy4Hu+wT3L8tiL1GoynlK5+o1o/Zcebo97s0T5CVoIfS/pAYd77/+UvP1ElATS0FUHJitRmbpww6/rfa8mbW96WT639u7f80Vj6xtiy7GGSjHXhDQKsXskPRaYXtUHRaYTsU9NTp7Zv/qeR8bm28DkWrt2+fVJvoX/awdJIaO47QAAAAAElFTkSuQmCCq8ETfcgoE+FL8bvhgC/Nd8jGGJSGjo9PrdkYwA/q+/1euJQOlLTwtGCWsxsb4/GIs72ulCrSgh+mQ7tgKJWtgxvy3W5HSixpQV8cHZ04f/Q+85+pw9p4OCQtnpehg4ND2tvDFUeyV+Yzn7rcJ9j/tMB7jUZTykLItJNY8FVBr9el8Q5XHNBDyUw9vol6fBv1uAn1uInX8Lj3wy/vlrYBE1ALl8LC7ji1Gev9DAtfrLZM7PqB9O76/7f2J/XKl6rNqMe3UY8b+FK1GfX4NjYfypdvOK8oiqIoyieH6D9JgdaskvvvswAAAABJRU5ErkJggg==;opacity=30;" vertex="1" parent="1">
          <mxGeometry x="260" y="480" width="199" height="15" as="geometry" />
        </mxCell>
        <mxCell id="GK8F7HFFTt3U1kgFTSHo-19" value="" style="shape=image;imageAspect=0;aspect=fixed;verticalLabelPosition=bottom;verticalAlign=top;image=data:image/png,iVBORw0KGgoAAAANSUhEUgAAAMcAAAAPCAYAAABQvtsfAAAAAXNSR0IArs4c6QAAAARnQU1BAACxjwv8YQUAAAAJcEhZcwAADsMAAA7DAcdvqGQAAAXvSURBVGhD7ZnLcutEEIZbvl9iO06ce8KKF4AtxYqn4FWABVSxhFc6LFnCO5A4ie+X+C5b9N8aJY7OaDRyFecUVfpc7UgTzy+5p2e6R3Yetr97lJKS8hEZ9TclJSWE89fwB23mcByH8oUCZTKOatHjeR6t12vydvYJiKWVtnlusjRtWHu326kWO/KFPGWzWXUWzWa9oe12q87syOVzlMvl1Fk0m41LW9dVZ3ZAF/pxuKzrsn4S4I8c+8U8miT+2Gw27HzVYEEmm6F8viDjagLjiPHEuNqC+EOsIB5N7Dj+fO0kcWiOceenP77WqhX4y17f3FGxUFQtejabNT20/6HVaqVa4slmc3RzfUvlckW16NluXWo/3tN8Plct8eALX13eUK1WVy164MSn5weaTCaqxY7zswtqNk/VWTTd3hMNBgN1ZscJ656dnfORORCGwz7rdxIFQr3WoIuLq9gFaTods18eEy1IlUqVrq9uZFxNzOcv9PjUlsltS6lUFm1MPhPL1YLa7Xt/YlsSF+MZOFhr+C//9ZeQaHt9hfubTH1ep7dv8h7uG2t+n32dKAs+m8y4q0YrbPicvn+Mce+wVtjkpesbYzqtsPkvPtL0jzb/8/s6OpP3d/3szOe9ls7kXdM/0vjzfPDaP2zpniMlJQLnxw9fYZoI1eqRlA1A6rE816iaWm82e6Fevyt1Hmbgxt3wnsOchoulEl1zuSOwJNJkRqO9WC6o03lWaZ21OU3Gpfgc3yfKtIzDc50lcznec2jKB+yNnjtPr2nd5fuO23M4rIO0jhQMsC/Q7WegA+2gvMQ1UBbGcXl5TWUuHYDsCzT7mR37uNt9fi0vcS0X2rLqRdPiEq1Wrcmx7AvYL2Ewfv1Bj15epiK32/GeA/6J0W42T+i40ZRj+EhiRc7egPZoNKTxZCzHGEf4HMcm6vUGnZ605NjBnoPvOxyHUJiy7mA4ED3P4/0Mx0qcdpIYfxdBqEeLxaJYwbAJwuAgCFarJQfcKnZiAARuoI0aTzcxABwITWjjGja1L+4TmoG2bmIAOO5Nexk7MQDu8lWbLWqjjyHB5HvTtqurMTiBtmmjj4EPtBFg/GXUf6JBUAXauokRAO2lGk+p2S20c7y/CLQLmokRgEkc3Df2p3HBC+DjN+3oOHQRh2o85aGQhXaSGE/LqpSUCJxf//zGQ6rxV98CHR35aXgfzEik3cVyKedYfWfzWUzGYL1SkWpHddHO86qIdKljNpuJHsCqiGvFZQw8gmvUGpLSsdI0WFu3CiwWC5qyHsBqDu24jIEVvF4/Fl1oQluXMbBqTaRkgI92ch0XK68BrFyNxrGUfqBeq0v2CAM/jMdj2sIP8D+nefjdBO4VPi6opy9HPK5YIcPg+48nI74G/OCJ76UcNKy80EZs4OkRqJQrVC77x/ugLMMTwLX4wRP/o1Q2abM4VStVqlTw9NLha5TkPMwOPmbtFWcJaCPbLRCHMdooWw+Jcee3v7/zzlsX0jEKBGqH6+nReKRaLGA9DPxlzONDfK1er0P9fs9vsKRSrfI+4y6yhAoYjgb0/PykzuwoFkt0e3tnLEXA9GVC7ce2VVkZgIl3e/OFBICJxWJOD+17DmC78gzAz9e898KkMIGBh3aSx+9YhC7OL3mfcaxa9KAsaz8+yP3bgtg7bZ3RabOFsIkEkxqPghHEtkD7uNmkQ2I8LatSUiJwfvnwrYcnD6ZZhZVxMOwnmrEszamsKk8dsOpEwulsNB5yCZEgKzFI72dnF8asBPCj1mDQV2d2oCzBE42sYYMM5pzSe70ufwX7zIEfyqBd0JQ7+2CT2e12pBS0Bb5otc5jf1x1eWPcYW1skG1xnAydnJxySYKsFB0rWy4Hu+wT3L8tiL1GoynlK5+o1o/Zcebo97s0T5CVoIfS/pAYd77/+UvP1ElATS0FUHJitRmbpww6/rfa8mbW96WT639u7f80Vj6xtiy7GGSjHXhDQKsXskPRaYXtUHRaYTsU9NTp7Zv/qeR8bm28DkWrt2+fVJvoX/awdJIaO47QAAAAAElFTkSuQmCCq8ETfcgoE+FL8bvhgC/Nd8jGGJSGjo9PrdkYwA/q+/1euJQOlLTwtGCWsxsb4/GIs72ulCrSgh+mQ7tgKJWtgxvy3W5HSixpQV8cHZ04f/Q+85+pw9p4OCQtnpehg4ND2tvDFUeyV+Yzn7rcJ9j/tMB7jUZTykLItJNY8FVBr9el8Q5XHNBDyUw9vol6fBv1uAn1uInX8Lj3wy/vlrYBE1ALl8LC7ji1Gev9DAtfrLZM7PqB9O76/7f2J/XKl6rNqMe3UY8b+FK1GfX4NjYfypdvOK8oiqIoyieH6D9JgdaskvvvswAAAABJRU5ErkJggg==;opacity=30;" vertex="1" parent="1">
          <mxGeometry x="450" y="480" width="199" height="15" as="geometry" />
        </mxCell>
        <mxCell id="GK8F7HFFTt3U1kgFTSHo-22" value="" style="html=1;shadow=0;dashed=0;align=center;verticalAlign=middle;shape=mxgraph.arrows2.jumpInArrow;dy=15;dx=38;arrowHead=55;gradientColor=none;opacity=30;rotation=60;direction=south;strokeColor=#A9C4EB;fillColor=#A9C4EB;" vertex="1" parent="1">
          <mxGeometry x="660" y="355" width="138.39" height="140" as="geometry" />
        </mxCell>
        <mxCell id="GK8F7HFFTt3U1kgFTSHo-24" value="" style="html=1;shadow=0;dashed=0;align=center;verticalAlign=middle;shape=mxgraph.arrows2.jumpInArrow;dy=15;dx=38;arrowHead=55;strokeColor=#7EA6E0;gradientColor=none;opacity=30;rotation=-115;direction=south;fillColor=#A9C4EB;" vertex="1" parent="1">
          <mxGeometry x="210" y="335" width="138.39" height="140" as="geometry" />
        </mxCell>
      </root>
    </mxGraphModel>
  </diagram>
</mxfile>
